<svg width="20" height="21" viewBox="0 0 20 21" fill="none" xmlns="http://www.w3.org/2000/svg">
<path d="M10.0001 17.6999C14.087 17.6999 17.4001 14.3868 17.4001 10.2999C17.4001 6.213 14.087 2.8999 10.0001 2.8999C5.91319 2.8999 2.6001 6.213 2.6001 10.2999C2.6001 14.3868 5.91319 17.6999 10.0001 17.6999Z" stroke="#313131" stroke-linecap="round" stroke-linejoin="round"/>
<path d="M10.7447 7.01989C10.7405 7.2137 10.66 7.39803 10.5207 7.53284C10.3814 7.66765 10.1945 7.74202 10.0006 7.73987C9.85936 7.73516 9.72264 7.68898 9.60744 7.60705C9.49216 7.52513 9.40368 7.41108 9.35288 7.27917C9.302 7.14727 9.29112 7.00331 9.3216 6.86525C9.352 6.72721 9.4224 6.60121 9.524 6.5029C9.6256 6.4046 9.75384 6.33837 9.8928 6.31248C10.0318 6.28658 10.1754 6.30217 10.3055 6.3573C10.4357 6.41243 10.5467 6.50465 10.6248 6.62249C10.703 6.74031 10.7446 6.87853 10.7447 7.01989ZM9.43272 13.7239V9.41993C9.43056 9.34433 9.44368 9.26905 9.47136 9.19873C9.49904 9.12841 9.54064 9.06441 9.59376 9.01065C9.6468 8.95681 9.71024 8.91425 9.78016 8.88561C9.85008 8.85697 9.92512 8.84273 10.0006 8.84385C10.0752 8.84377 10.149 8.85881 10.2176 8.88809C10.2862 8.91729 10.3482 8.96009 10.3998 9.01393C10.4514 9.06777 10.4914 9.13145 10.5178 9.20121C10.5441 9.27097 10.5559 9.34537 10.5526 9.41993V13.7239C10.5526 13.7975 10.5382 13.8703 10.5101 13.9382C10.4819 14.0061 10.4406 14.0679 10.3886 14.1199C10.3366 14.1719 10.275 14.2131 10.207 14.2412C10.139 14.2694 10.0662 14.2839 9.99272 14.2839C9.9192 14.2839 9.84632 14.2694 9.7784 14.2412C9.71048 14.2131 9.64872 14.1719 9.59672 14.1199C9.54472 14.0679 9.50344 14.0061 9.47536 13.9382C9.4472 13.8703 9.43272 13.7975 9.43272 13.7239Z" fill="#313131"/>
</svg>
